<svg width="153" height="49" viewBox="0 0 153 49" xmlns="http://www.w3.org/2000/svg">
    <g fill="none" fill-rule="evenodd">
        <g fill="#000" fill-rule="nonzero">
            <path d="M64.665 18.196H55.94v4.016h7.637v3.032H55.94v7.32h-3.611V15.128h12.336zM70.285 15v3.115h-3.411V15h3.411zm0 4.654v12.91h-3.411v-12.91h3.411zM79.6 22.153c-1.142 0-1.924.485-2.351 1.458-.22.512-.33 1.17-.33 1.964v6.988h-3.353V19.68h3.245v1.883c.432-.663.84-1.14 1.228-1.433.693-.52 1.569-.782 2.632-.782 1.33 0 2.418.35 3.265 1.048.846.698 1.268 1.857 1.268 3.477v8.694h-3.447v-7.853c0-.68-.092-1.2-.272-1.563-.327-.666-.956-.997-1.885-.997zM99.326 28.774c-.086.766-.483 1.544-1.192 2.334-1.102 1.256-2.644 1.884-4.63 1.884-1.635 0-3.08-.528-4.333-1.587-1.251-1.06-1.877-2.779-1.877-5.164 0-2.234.564-3.948 1.695-5.14 1.13-1.19 2.595-1.789 4.398-1.789 1.069 0 2.033.202 2.893.604.86.401 1.566 1.037 2.125 1.908.505.765.83 1.655.98 2.665.087.593.121 1.445.108 2.558h-8.806c.048 1.293.451 2.202 1.217 2.724.464.324 1.023.485 1.676.485.693 0 1.255-.196 1.687-.592.237-.213.446-.51.626-.89h3.433zm-3.328-3.956c-.057-.892-.325-1.569-.809-2.032-.483-.461-1.085-.693-1.8-.693-.779 0-1.383.246-1.813.733-.43.49-.699 1.154-.809 1.99h5.23v.002zM116.104 32.563h-3.638l-7.106-12.4v12.4h-3.387V15.105h3.812l6.931 12.187V15.105h3.388zM127.473 30.739c-.032.04-.11.159-.237.356a2.386 2.386 0 0 1-.448.52c-.527.474-1.037.797-1.529.97-.491.172-1.069.261-1.73.261-1.905 0-3.189-.687-3.85-2.061-.37-.758-.556-1.876-.556-3.353v-7.778h3.447v7.78c0 .734.086 1.289.26 1.658.307.655.909.984 1.806.984 1.15 0 1.937-.466 2.361-1.399.22-.506.33-1.172.33-2.002v-7.02h3.413v12.908h-3.27V30.74h.003zM139.882 30.16v2.522l-1.593.06c-1.59.056-2.676-.222-3.259-.83-.379-.389-.567-.984-.567-1.79v-7.945h-1.794v-2.404h1.794v-3.6h3.329v3.6h2.09v2.404h-2.09v6.82c0 .53.067.86.201.99.135.13.543.197 1.228.197.102 0 .21-.003.325-.006.113-.005.223-.01.336-.019zM150.907 20.247c1.008.647 1.585 1.76 1.736 3.34h-3.364c-.048-.435-.169-.78-.365-1.03-.37-.458-1-.687-1.889-.687-.73 0-1.254.113-1.563.342-.31.229-.468.498-.468.806 0 .388.167.668.497.84.33.181 1.5.494 3.506.936 1.338.315 2.343.792 3.012 1.433.66.647.991 1.458.991 2.429 0 1.28-.476 2.323-1.424 3.131-.948.809-2.415 1.213-4.398 1.213-2.023 0-3.516-.429-4.48-1.286-.965-.857-1.446-1.948-1.446-3.274h3.412c.07.601.223 1.027.46 1.28.416.45 1.187.674 2.312.674.661 0 1.188-.1 1.577-.297.39-.196.583-.493.583-.889a.959.959 0 0 0-.473-.865c-.314-.197-1.483-.536-3.505-1.019-1.457-.364-2.483-.816-3.082-1.36-.599-.537-.897-1.31-.897-2.321 0-1.191.467-2.215 1.4-3.072.932-.857 2.245-1.286 3.938-1.286 1.604.003 2.915.32 3.93.962z"/>
        </g>
        <path stroke="#000" stroke-width="5" d="M3 13.75v21.5L22.129 46l19.126-10.75v-21.5L22.129 3z"/>
    </g>
</svg>
